<svg width="16" height="10" viewBox="0 0 16 10" fill="none" xmlns="http://www.w3.org/2000/svg">
<path d="M7.99996 3C7.46953 3 6.96082 3.21071 6.58575 3.58579C6.21067 3.96086 5.99996 4.46957 5.99996 5C5.99996 5.53043 6.21067 6.03914 6.58575 6.41421C6.96082 6.78929 7.46953 7 7.99996 7C8.53039 7 9.0391 6.78929 9.41417 6.41421C9.78925 6.03914 9.99996 5.53043 9.99996 5C9.99996 4.46957 9.78925 3.96086 9.41417 3.58579C9.0391 3.21071 8.53039 3 7.99996 3ZM7.99996 8.33333C7.1159 8.33333 6.26806 7.98214 5.64294 7.35702C5.01782 6.7319 4.66663 5.88406 4.66663 5C4.66663 4.11595 5.01782 3.2681 5.64294 2.64298C6.26806 2.01786 7.1159 1.66667 7.99996 1.66667C8.88401 1.66667 9.73186 2.01786 10.357 2.64298C10.9821 3.2681 11.3333 4.11595 11.3333 5C11.3333 5.88406 10.9821 6.7319 10.357 7.35702C9.73186 7.98214 8.88401 8.33333 7.99996 8.33333ZM7.99996 0C4.66663 0 1.81996 2.07333 0.666626 5C1.81996 7.92667 4.66663 10 7.99996 10C11.3333 10 14.18 7.92667 15.3333 5C14.18 2.07333 11.3333 0 7.99996 0Z" fill="#8D959C"/>
</svg>
